<svg width="293" height="64" viewBox="0 0 293 64" fill="none" xmlns="http://www.w3.org/2000/svg">
<path d="M85.3328 10.2202V27.518H80.1289V0.856934H85.2608L94.0884 13.5802L102.414 0.856934H107.546V27.518H102.343V10.2927L94.3042 22.3717H93.8013L85.3328 10.2202Z" fill="#012169"/>
<path d="M122.976 28.3749C116.23 28.3749 112.533 23.9792 112.533 16.5102V0.856934H117.737V17.5474C117.737 21.5856 120.284 23.6231 122.976 23.6231C125.775 23.6231 128.252 21.5855 128.252 17.5474V0.856934H133.455V16.5102C133.455 23.9792 129.794 28.3749 122.976 28.3749Z" fill="#012169"/>
<path d="M151.756 5.5748C150.5 5.07391 148.562 4.71632 146.984 4.71632C144.004 4.71632 142.785 5.71815 142.785 7.2548C142.785 8.68357 144.184 9.86263 147.449 12.1145C151.361 14.8302 153.765 17.1544 153.765 20.4065C153.765 24.8022 149.89 27.9465 144.041 27.9465C142.246 27.9465 139.16 27.518 137.868 27.125L137.94 22.4426C139.16 22.908 142.031 23.5507 144.363 23.5507C147.127 23.5507 148.49 22.1574 148.49 20.6208C148.49 19.155 147.055 17.905 143.789 15.6887C139.088 12.4721 137.581 10.3281 137.581 7.29027C137.581 3.71603 140.309 0.320618 146.984 0.320618C148.634 0.320618 150.5 0.607312 151.828 0.964858L151.756 5.5748Z" fill="#012169"/>
<path d="M157.855 0.856934H172.461V5.36055H163.059V11.578H171.564V16.0817H163.059V23.0143H172.748V27.518H157.855V0.856934Z" fill="#012169"/>
<path d="M187.927 28.3749C181.18 28.3749 177.484 23.9792 177.484 16.5102V0.856934H182.688V17.5474C182.688 21.5856 185.235 23.6231 187.927 23.6231C190.726 23.6231 193.202 21.5855 193.202 17.5474V0.856934H198.405V16.5102C198.405 23.9792 194.745 28.3749 187.927 28.3749Z" fill="#012169"/>
<path d="M208.596 10.2202V27.518H203.393V0.856934H208.524L217.352 13.5802L225.677 0.856934H230.809V27.518H225.605V10.2927L217.567 22.3717H217.065L208.596 10.2202Z" fill="#012169"/>
<path d="M271.718 14.152C271.718 22.0141 265.33 28.3749 257.112 28.3749C248.823 28.3749 242.471 22.0141 242.471 14.152C242.471 6.32541 248.823 0 257.112 0C265.33 0 271.718 6.32541 271.718 14.152ZM247.711 14.152C247.711 19.3692 251.765 23.6232 257.112 23.6232C262.423 23.6232 266.479 19.3693 266.479 14.152C266.479 9.00569 262.423 4.75329 257.112 4.75329C251.765 4.75329 247.711 9.00569 247.711 14.152Z" fill="#012169"/>
<path d="M275.807 0.856934H291.418V5.36055H281.011V12.3287H290.233V16.8323H281.011V27.518H275.807V0.856934Z" fill="#012169"/>
<path d="M97.5722 42.6779C96.0107 41.6761 94.1365 41.1567 92.1239 41.1567C86.8148 41.1567 82.7546 45.3736 82.7546 50.2117C82.7546 55.153 86.8147 59.4039 92.1239 59.4039C94.1365 59.4039 96.0107 58.886 97.5722 57.8827V62.7562C95.8714 63.5854 93.8936 64 91.8468 64C83.7265 64 77.6885 57.8487 77.6885 50.2456C77.6885 42.6779 83.7265 36.5606 91.8468 36.5606C93.8935 36.5606 95.8374 36.9752 97.5722 37.8044V42.6779Z" fill="#012169"/>
<path d="M100.521 37.3898H105.553V47.1708H115.164V37.3898H120.197V63.1708H115.164V51.6975H105.553V63.1708H100.521V37.3898Z" fill="#012169"/>
<path d="M123.596 37.3898H137.72V41.7439H128.628V47.758H136.852V52.1121H128.628V58.8167H137.997V63.1708H123.596V37.3898Z" fill="#012169"/>
<path d="M146.187 37.3898V58.644H155.105V63.1708H141.155V37.3898H146.187Z" fill="#012169"/>
<path d="M162.286 46.4448V63.1708H157.254V37.3898H162.217L170.753 49.6923L178.803 37.3898H183.766V63.1708H178.734V46.5142L170.962 58.194H170.476L162.286 46.4448Z" fill="#012169"/>
<path d="M200.214 41.952C198.999 41.468 197.125 41.1228 195.598 41.1228C192.718 41.1228 191.538 42.0907 191.538 43.5765C191.538 44.9591 192.892 46.0996 196.049 48.2759C199.831 50.9022 202.157 53.1494 202.157 56.2936C202.157 60.5444 198.409 63.5854 192.753 63.5854C191.018 63.5854 188.033 63.1708 186.784 62.7901L186.854 58.2633C188.033 58.7134 190.81 59.3345 193.065 59.3345C195.737 59.3345 197.056 57.9874 197.056 56.5016C197.056 55.0837 195.667 53.8753 192.51 51.7314C187.964 48.6211 186.506 46.5481 186.506 43.6104C186.506 40.1548 189.143 36.8719 195.598 36.8719C197.194 36.8719 198.999 37.1478 200.282 37.4946L200.214 41.952Z" fill="#012169"/>
<path d="M204.689 37.3898H219.784V41.7439H209.722V48.4839H218.64V52.8381H209.722V63.1708H204.689V37.3898Z" fill="#012169"/>
<path d="M249.556 50.2456C249.556 57.8487 243.38 64 235.433 64C227.418 64 221.275 57.8487 221.275 50.2456C221.275 42.6779 227.418 36.5606 235.433 36.5606C243.38 36.5606 249.556 42.6779 249.556 50.2456ZM226.342 50.2456C226.342 55.2917 230.263 59.4038 235.433 59.4038C240.569 59.4038 244.49 55.2917 244.49 50.2456C244.49 45.2688 240.569 41.1567 235.433 41.1567C230.263 41.1567 226.342 45.2688 226.342 50.2456Z" fill="#012169"/>
<path d="M257.121 54.6352V63.1708H252.089V37.3898H258.508C264.616 37.3898 269.474 39.9129 269.474 45.8576C269.474 50.073 266.559 52.7348 262.812 53.9092L269.925 63.1708H263.818L257.121 54.6352ZM257.121 42.0907V50.1085H259.064C262.187 50.1085 264.408 48.4146 264.408 45.8576C264.408 43.5765 262.777 42.0907 258.959 42.0907H257.121Z" fill="#012169"/>
<path d="M272.284 37.3898H279.571C286.511 37.3898 293 41.5713 293 50.2456C293 59.0232 286.546 63.1708 279.571 63.1708H272.284V37.3898ZM277.316 58.644H279.675C284.013 58.644 287.934 55.8096 287.934 50.2456C287.934 44.751 284.013 41.9181 279.675 41.9181H277.316V58.644Z" fill="#012169"/>
<path d="M31.1495 0C22.6878 0 15.8282 6.83146 15.8282 15.2585C15.8282 6.83146 8.96859 0 0.506836 0V30.5181H31.1496L31.1495 0Z" fill="#0072CE"/>
<path d="M15.828 64C24.5696 64 31.6561 56.9426 31.6561 48.2368C31.6561 39.531 24.5696 32.4735 15.828 32.4735C7.08646 32.4735 0 39.531 0 48.2368C0 56.9426 7.08646 64 15.828 64Z" fill="#E40046"/>
<path d="M65.2362 0.0162354C47.4949 0.0162354 33.1128 14.3395 33.1128 32.0081C33.1128 49.6767 47.4949 64 65.2362 64L65.2362 0.0162354Z" fill="#FFA400"/>
</svg>
